HIERARCHY
ROOT Hips
{
	OFFSET 0.000000 0.000000 0.000000
	CHANNELS 6 Xposition Yposition Zposition Xrotation Yrotation Zrotation
	JOINT LeftUpLeg_virtual
	{
		OFFSET 0.000000 0.000000 0.000000
		CHANNELS 3 Xrotation Yrotation Zrotation
		JOINT LeftUpLeg
		{
			OFFSET 15.427100 -6.655098 0.678600
			CHANNELS 3 Xrotation Yrotation Zrotation
			JOINT LeftLeg
			{
				OFFSET 4.081073 -39.591068 13.024000
				CHANNELS 3 Xrotation Yrotation Zrotation
				JOINT LeftFoot
				{
					OFFSET -4.081074 -37.707932 -15.979700
					CHANNELS 3 Xrotation Yrotation Zrotation
					JOINT LeftToeBase
					{
						OFFSET 5.346399 -15.068900 20.645000
						CHANNELS 3 Xrotation Yrotation Zrotation
						JOINT LeftToe_End
						{
							OFFSET 2.754700 0.931300 11.300900
							CHANNELS 3 Xrotation Yrotation Zrotation
							End Site
							{
								OFFSET 0 0 0
							}
						}
					}
				}
			}
		}
	}
	JOINT RightUpLeg_virtual
	{
		OFFSET 0.000000 0.000000 0.000000
		CHANNELS 3 Xrotation Yrotation Zrotation
		JOINT RightUpLeg
		{
			OFFSET -15.569500 -6.655098 0.678600
			CHANNELS 3 Xrotation Yrotation Zrotation
			JOINT RightLeg
			{
				OFFSET -4.081825 -39.591045 13.023800
				CHANNELS 3 Xrotation Yrotation Zrotation
				JOINT RightFoot
				{
					OFFSET 4.081824 -37.707954 -15.979600
					CHANNELS 3 Xrotation Yrotation Zrotation
					JOINT RightToeBase
					{
						OFFSET -5.346400 -15.068900 20.645000
						CHANNELS 3 Xrotation Yrotation Zrotation
						JOINT RightToe_End
						{
							OFFSET -2.754700 0.931300 11.300900
							CHANNELS 3 Xrotation Yrotation Zrotation
							End Site
							{
								OFFSET 0 0 0
							}
						}
					}
				}
			}
		}
	}
	JOINT Spine_virtual
	{
		OFFSET 0.000000 0.000000 0.000000
		CHANNELS 3 Xrotation Yrotation Zrotation
		JOINT Spine
		{
			OFFSET -0.279200 12.230698 -2.892100
			CHANNELS 3 Xrotation Yrotation Zrotation
			JOINT Spine1
			{
				OFFSET -0.232667 10.192268 -1.242267
				CHANNELS 3 Xrotation Yrotation Zrotation
				JOINT Spine1_split
				{
					OFFSET -0.232667 10.192268 -1.242267
					CHANNELS 3 Xrotation Yrotation Zrotation
					JOINT Spine2
					{
						OFFSET -0.232667 10.192268 -1.242267
						CHANNELS 3 Xrotation Yrotation Zrotation
						JOINT Neck_virtual
						{
							OFFSET 0.000000 0.000000 0.000000
							CHANNELS 3 Xrotation Yrotation Zrotation
							JOINT Neck
							{
								OFFSET -0.418800 17.814194 8.416900
								CHANNELS 3 Xrotation Yrotation Zrotation
								JOINT Head
								{
									OFFSET 0.000000 7.031097 3.806800
									CHANNELS 3 Xrotation Yrotation Zrotation
									JOINT HeadTop_End
									{
										OFFSET 0.000000 24.646606 12.978600
										CHANNELS 3 Xrotation Yrotation Zrotation
										End Site
										{
											OFFSET 0 0 0
										}
									}
								}
							}
						}
						JOINT LeftShoulder_virtual
						{
							OFFSET 0.000000 0.000000 0.000000
							CHANNELS 3 Xrotation Yrotation Zrotation
							JOINT LeftShoulder
							{
								OFFSET 8.476499 7.247704 -3.868750
								CHANNELS 3 Xrotation Yrotation Zrotation
								JOINT LeftShoulder_split
								{
									OFFSET 8.476499 7.247704 -3.868750
									CHANNELS 3 Xrotation Yrotation Zrotation
									JOINT LeftArm
									{
										OFFSET 9.308998 -2.777710 0.208600
										CHANNELS 3 Xrotation Yrotation Zrotation
										JOINT LeftForeArm
										{
											OFFSET 29.972298 0.000000 0.000000
											CHANNELS 3 Xrotation Yrotation Zrotation
											JOINT LeftHand
											{
												OFFSET 26.026505 0.000000 0.000000
												CHANNELS 3 Xrotation Yrotation Zrotation
												End Site
												{
													OFFSET 0 0 0
												}
											}
										}
									}
								}
							}
						}
						JOINT RightShoulder_virtual
						{
							OFFSET 0.000000 0.000000 0.000000
							CHANNELS 3 Xrotation Yrotation Zrotation
							JOINT RightShoulder
							{
								OFFSET -7.570500 7.247704 -3.868750
								CHANNELS 3 Xrotation Yrotation Zrotation
								JOINT RightShoulder_split
								{
									OFFSET -7.570500 7.247704 -3.868750
									CHANNELS 3 Xrotation Yrotation Zrotation
									JOINT RightArm
									{
										OFFSET -9.308998 -2.777710 0.208500
										CHANNELS 3 Xrotation Yrotation Zrotation
										JOINT RightForeArm
										{
											OFFSET -29.972300 0.000000 0.000000
											CHANNELS 3 Xrotation Yrotation Zrotation
											JOINT RightHand
											{
												OFFSET -26.026505 0.000000 0.000000
												CHANNELS 3 Xrotation Yrotation Zrotation
												End Site
												{
													OFFSET 0 0 0
												}
											}
										}
									}
								}
							}
						}
					}
				}
			}
		}
	}
}
MOTION
Frames: 9
Frame Time: 0.03333333
7.610766 78.831291 -2.193584 0.000000 0.000000 0.000000 159.360772 -81.401430 168.072528 -5.077650 17.529349 16.877937 39.952676 5.583272 -9.768303 -21.432644 21.631014 -21.088844 -1.594031 0.000003 -0.000000 0.000000 0.000000 0.000000 159.360772 -81.401430 168.072528 -50.662863 14.820110 -15.227934 44.660947 -1.816664 -7.617631 -2.385549 20.938256 16.515923 -0.013009 0.000006 -0.000003 0.000000 0.000000 0.000000 159.360772 -81.401430 168.072528 27.583702 -10.759389 10.104882 23.161366 -3.493219 1.352683 0.000000 0.000000 0.000000 0.000000 0.000000 0.000000 23.166764 -3.536853 1.303657 5.566801 -1.498437 -2.573748 -27.602628 15.614096 -15.598456 0.000000 0.000000 0.000000 23.166764 -3.536853 1.303657 -0.582110 -10.753514 13.082372 0.000000 0.000000 0.000000 15.295874 14.965076 -73.078919 0.000043 -77.278413 0.000053 0.000000 0.000000 0.000000 23.166764 -3.536853 1.303657 6.979273 20.126742 14.548974 0.000000 0.000000 0.000000 -57.790613 57.846805 49.544259 180.000005 71.252274 -179.999991 0.000000 0.000000 0.000000 
7.461986 78.413155 -2.784397 0.000000 0.000000 0.000000 162.587817 -85.394959 171.697077 -5.709286 17.117450 17.883575 40.824580 5.408069 -9.005210 -20.910563 18.090058 -21.711939 -1.594031 0.000003 -0.000000 0.000000 0.000000 0.000000 162.587817 -85.394959 171.697077 -48.072483 14.813364 -17.498222 47.005440 -1.613937 -7.356177 -4.495606 17.956354 16.965283 -0.013009 0.000008 -0.000003 0.000000 0.000000 0.000000 162.587817 -85.394959 171.697077 27.113213 -10.683684 9.689418 22.828258 -3.476725 1.160363 0.000000 0.000000 0.000000 0.000000 0.000000 0.000000 22.831256 -3.513606 1.117206 5.617714 -1.103826 -3.287039 -24.500425 16.764399 -15.915164 0.000000 0.000000 0.000000 22.831256 -3.513606 1.117206 -0.574399 -9.850078 11.644901 0.000000 0.000000 0.000000 7.953498 23.817322 -68.381498 -0.000802 -83.763008 -0.000788 0.000000 0.000000 0.000000 22.831256 -3.513606 1.117206 6.747067 21.058558 15.296840 0.000000 0.000000 0.000000 -49.806860 49.425875 42.155928 -179.999937 69.219009 179.999964 0.000000 0.000000 0.000000 
7.347032 78.189163 -3.383327 0.000000 0.000000 0.000000 -40.906601 -89.380395 -31.554183 -7.156213 16.349135 19.157984 41.679355 5.324817 -7.950468 -20.102217 13.565267 -22.214924 -1.594031 0.000008 0.000000 0.000000 0.000000 0.000000 -40.906601 -89.380395 -31.554183 -44.427017 14.177717 -20.179855 48.955272 -1.412745 -7.113157 -6.773342 14.053108 17.572839 -0.013009 0.000007 -0.000003 0.000000 0.000000 0.000000 -40.906601 -89.380395 -31.554183 26.188969 -10.633971 9.378990 22.258190 -3.473029 1.011024 0.000000 0.000000 0.000000 0.000000 0.000000 0.000000 22.258244 -3.504554 0.974832 5.582344 -0.609718 -3.490659 -21.431938 18.334337 -15.324463 0.000000 0.000000 0.000000 22.258244 -3.504554 0.974832 -0.520520 -9.531917 10.234635 0.000000 0.000000 0.000000 1.463529 28.835477 -64.955072 179.998571 -87.420254 179.998694 0.000000 0.000000 0.000000 22.258244 -3.504554 0.974832 6.665671 21.639404 15.541465 0.000000 0.000000 0.000000 -46.863810 42.548346 39.774486 -179.999950 68.187295 179.999950 0.000000 0.000000 0.000000 
7.208282 78.085251 -3.948410 0.000000 0.000000 0.000000 -20.482353 -83.855093 -10.820145 -8.877473 15.517357 20.461462 42.274349 5.325468 -7.203439 -19.168634 8.405156 -22.391185 -1.594031 0.000003 -0.000000 0.000000 0.000000 0.000000 -20.482353 -83.855093 -10.820145 -40.332434 13.034125 -23.152297 50.471710 -1.234159 -6.584638 -8.981450 10.093538 18.068803 -0.013009 0.000007 -0.000004 0.000000 0.000000 0.000000 -20.482353 -83.855093 -10.820145 24.887485 -10.759660 8.891428 21.504876 -3.561797 0.743016 0.000000 0.000000 0.000000 0.000000 0.000000 0.000000 21.500286 -3.591408 0.715267 5.405979 0.051952 -3.528811 -18.138631 20.379770 -14.230574 0.000000 0.000000 0.000000 21.500286 -3.591408 0.715267 -0.460469 -9.394468 9.008915 0.000000 0.000000 0.000000 -1.728998 29.114054 -63.687109 179.999827 -78.356203 179.999841 0.000000 0.000000 0.000000 21.500286 -3.591408 0.715267 6.805440 22.098823 15.068224 0.000000 0.000000 0.000000 -46.646528 38.030377 40.216492 -179.999841 68.071919 179.999827 0.000000 0.000000 0.000000 
7.042733 77.963608 -4.412521 0.000000 0.000000 0.000000 -18.048022 -78.400026 -8.116216 -10.924213 14.754500 22.013066 42.835716 5.377953 -7.142447 -18.313028 2.790800 -22.181881 -1.594031 0.000009 0.000000 0.000000 0.000000 0.000000 -18.048022 -78.400026 -8.116216 -36.506132 11.422491 -25.843672 51.662328 -1.070429 -6.107728 -11.030372 6.297095 18.565600 -0.013009 0.000008 -0.000004 0.000000 0.000000 0.000000 -18.048022 -78.400026 -8.116216 23.133089 -10.795696 8.084988 20.574258 -3.614490 0.283393 0.000000 0.000000 0.000000 0.000000 0.000000 0.000000 20.564161 -3.644922 0.264582 5.153304 0.800720 -3.364210 -14.890789 23.039191 -12.855540 0.000000 0.000000 0.000000 20.564161 -3.644922 0.264582 -0.430178 -8.858779 8.302930 0.000000 0.000000 0.000000 -1.022117 24.841828 -64.349883 179.999978 -71.786736 179.999937 0.000000 0.000000 0.000000 20.564161 -3.644922 0.264582 7.072053 22.585250 14.200022 0.000000 0.000000 0.000000 -47.805932 35.661186 41.570819 -179.999991 68.446453 179.999991 0.000000 0.000000 0.000000 
6.826396 77.728996 -4.686256 0.000000 0.000000 0.000000 -15.418998 -73.090920 -5.667767 -13.849043 13.849219 23.688187 43.864332 5.446756 -6.916298 -17.749094 -2.716326 -21.962463 -1.594031 0.000009 0.000000 0.000000 0.000000 0.000000 -15.418998 -73.090920 -5.667767 -33.248360 9.299198 -27.836824 52.573872 -1.002037 -5.797742 -12.944403 2.592179 19.198125 -0.013009 0.000007 -0.000004 0.000000 0.000000 0.000000 -15.418998 -73.090920 -5.667767 20.872037 -10.043509 7.291159 19.219348 -3.366891 -0.109725 0.000000 0.000000 0.000000 0.000000 0.000000 0.000000 19.205992 -3.397624 -0.121692 4.870384 1.529201 -2.842620 -11.879541 25.097474 -11.465109 0.000000 0.000000 0.000000 19.205992 -3.397624 -0.121692 -0.427940 -7.920878 7.360575 0.000000 0.000000 0.000000 0.963438 16.907117 -65.113047 -180.000005 -67.931019 179.999991 0.000000 0.000000 0.000000 19.205992 -3.397624 -0.121692 7.361736 22.574810 12.882695 0.000000 0.000000 0.000000 -49.792865 34.384286 43.331188 -179.999950 69.037592 179.999950 0.000000 0.000000 0.000000 
6.527801 77.362343 -4.734531 0.000000 0.000000 0.000000 -12.884206 -67.947733 -3.755056 -17.796731 12.796399 24.169354 45.228587 3.978403 -5.120840 -17.375216 -5.670446 -21.380136 -1.594031 0.000008 0.000000 0.000000 0.000000 0.000000 -12.884206 -67.947733 -3.755056 -30.455171 6.810598 -29.225963 53.276425 -1.081870 -5.580150 -14.784993 -0.886601 19.995223 -0.013009 0.000007 -0.000004 0.000000 0.000000 0.000000 -12.884206 -67.947733 -3.755056 18.447223 -8.248233 6.629216 17.403780 -2.770860 -0.318709 0.000000 0.000000 0.000000 0.000000 0.000000 0.000000 17.390766 -2.799868 -0.326386 4.486489 2.270945 -1.925393 -9.287334 25.712099 -10.129679 0.000000 0.000000 0.000000 17.390766 -2.799868 -0.326386 -0.406672 -6.762231 5.492132 0.000000 0.000000 0.000000 1.854120 7.934885 -65.271371 179.999937 -65.659858 179.999923 0.000000 0.000000 0.000000 17.390766 -2.799868 -0.326386 7.578469 22.014528 10.994003 0.000000 0.000000 0.000000 -51.910944 33.170725 45.580263 -179.999950 69.361035 179.999950 0.000000 0.000000 0.000000 
6.167595 76.879646 -4.606556 0.000000 0.000000 0.000000 -11.115759 -63.354226 -2.573474 -21.521306 11.598432 23.369602 46.640565 1.185983 -2.891768 -17.027622 -6.019266 -20.228242 -1.594031 0.000009 0.000000 0.000000 0.000000 0.000000 -11.115759 -63.354226 -2.573474 -28.112321 4.339688 -30.398754 53.933260 -1.282907 -5.469571 -16.530931 -3.694646 20.910544 -0.013009 0.000007 -0.000003 0.000000 0.000000 0.000000 -11.115759 -63.354226 -2.573474 16.367368 -5.643069 5.643722 15.440577 -1.938255 -0.598006 0.000000 0.000000 0.000000 0.000000 0.000000 0.000000 15.430261 -1.964559 -0.601727 3.859745 3.099080 -0.618574 -7.405210 25.400879 -8.475786 0.000000 0.000000 0.000000 15.430261 -1.964559 -0.601727 -0.329906 -5.321379 3.102606 0.000000 0.000000 0.000000 0.807349 1.189618 -65.371228 179.999964 -64.716725 179.999950 0.000000 0.000000 0.000000 15.430261 -1.964559 -0.601727 7.643275 21.113899 8.738990 0.000000 0.000000 0.000000 -53.603827 31.926326 48.461124 -179.999964 69.019786 179.999950 0.000000 0.000000 0.000000 
5.778651 76.208946 -4.377018 0.000000 0.000000 0.000000 -10.044717 -59.815901 -1.811758 -24.185471 10.305613 22.557273 48.254993 -0.591937 -1.523132 -17.091507 -6.360656 -19.520375 -1.594031 0.000005 0.000000 0.000000 0.000000 0.000000 -10.044717 -59.815901 -1.811758 -26.597474 2.225507 -31.442089 54.847932 -0.999315 -5.484521 -18.151347 -5.974632 21.540342 -0.013009 0.000006 -0.000004 0.000000 0.000000 0.000000 -10.044717 -59.815901 -1.811758 14.713071 -2.295388 3.996361 13.434760 -0.860437 -1.102788 0.000000 0.000000 0.000000 0.000000 0.000000 0.000000 13.428942 -0.882384 -1.101677 3.070349 3.988033 0.965829 -6.018172 24.371749 -6.294628 0.000000 0.000000 0.000000 13.428942 -0.882384 -1.101677 -0.234620 -3.576978 0.962656 0.000000 0.000000 0.000000 -3.113432 -2.233280 -65.774182 179.999964 -64.844921 179.999964 0.000000 0.000000 0.000000 13.428942 -0.882384 -1.101677 7.513534 19.864485 6.212170 0.000000 0.000000 0.000000 -54.597366 30.262116 52.127632 -179.999964 68.427997 179.999950 0.000000 0.000000 0.000000 
